STARTFONT 2.1
COMMENT Exported by Fony v1.4.6
FONT --font511s-medium-r-normal--11-110-75-75-M-50-ISO8859-1
SIZE 11 75 75
FONTBOUNDINGBOX 6 11 0 -2
STARTPROPERTIES 25
FONTNAME_REGISTRY ""
FOUNDRY ""
FAMILY_NAME "font511s"
WEIGHT_NAME "medium"
SLANT "r"
SETWIDTH_NAME "normal"
ADD_STYLE_NAME ""
PIXEL_SIZE 11
POINT_SIZE 110
RESOLUTION_X 75
RESOLUTION_Y 75
SPACING "M"
AVERAGE_WIDTH 50
CHARSET_REGISTRY "ISO8859"
CHARSET_ENCODING "1"
COPYRIGHT "free"
FACE_NAME "font511s"
WEIGHT 11
X_HEIGHT 7
QUAD_WIDTH 6
CHARSET_COLLECTIONS "ISO8859-2 ISO8859-5 ISO8859-9 ISO8859-4 ISO10646-1"
DEFAULT_CHAR 0
FONT_DESCENT 2
FONT_ASCENT 9
_GBDFED_INFO "Edited with gbdfed 1.6."
ENDPROPERTIES
CHARS 224
STARTCHAR 032
ENCODING 32
SWIDTH 523 0
DWIDTH 6 0
BBX 0 0 0 0
BITMAP
ENDCHAR
STARTCHAR 033
ENCODING 33
SWIDTH 523 0
DWIDTH 6 0
BBX 3 8 2 0
BITMAP
40
E0
E0
E0
40
40
00
40
ENDCHAR
STARTCHAR 034
ENCODING 34
SWIDTH 523 0
DWIDTH 6 0
BBX 3 3 1 5
BITMAP
A0
A0
A0
ENDCHAR
STARTCHAR 035
ENCODING 35
SWIDTH 523 0
DWIDTH 6 0
BBX 5 7 1 0
BITMAP
50
50
F8
50
F8
50
50
ENDCHAR
STARTCHAR 036
ENCODING 36
SWIDTH 523 0
DWIDTH 6 0
BBX 5 10 1 -1
BITMAP
20
70
A8
A0
60
30
28
A8
70
20
ENDCHAR
STARTCHAR 037
ENCODING 37
SWIDTH 523 0
DWIDTH 6 0
BBX 5 8 1 0
BITMAP
40
A0
48
30
60
90
28
10
ENDCHAR
STARTCHAR 038
ENCODING 38
SWIDTH 523 0
DWIDTH 6 0
BBX 5 8 1 0
BITMAP
30
48
48
30
60
98
90
68
ENDCHAR
STARTCHAR 039
ENCODING 39
SWIDTH 523 0
DWIDTH 6 0
BBX 1 3 3 5
BITMAP
80
80
80
ENDCHAR
STARTCHAR 040
ENCODING 40
SWIDTH 523 0
DWIDTH 6 0
BBX 3 10 1 -1
BITMAP
20
40
40
80
80
80
80
40
40
20
ENDCHAR
STARTCHAR 041
ENCODING 41
SWIDTH 523 0
DWIDTH 6 0
BBX 3 10 2 -1
BITMAP
80
40
40
20
20
20
20
40
40
80
ENDCHAR
STARTCHAR 042
ENCODING 42
SWIDTH 523 0
DWIDTH 6 0
BBX 3 3 2 5
BITMAP
A0
40
A0
ENDCHAR
STARTCHAR 043
ENCODING 43
SWIDTH 523 0
DWIDTH 6 0
BBX 5 5 1 1
BITMAP
20
20
F8
20
20
ENDCHAR
STARTCHAR 044
ENCODING 44
SWIDTH 523 0
DWIDTH 6 0
BBX 3 3 2 -2
BITMAP
60
40
80
ENDCHAR
STARTCHAR 045
ENCODING 45
SWIDTH 523 0
DWIDTH 6 0
BBX 4 1 1 3
BITMAP
F0
ENDCHAR
STARTCHAR 046
ENCODING 46
SWIDTH 523 0
DWIDTH 6 0
BBX 2 2 2 0
BITMAP
C0
C0
ENDCHAR
STARTCHAR 047
ENCODING 47
SWIDTH 523 0
DWIDTH 6 0
BBX 3 9 1 -1
BITMAP
20
20
20
40
40
40
80
80
80
ENDCHAR
STARTCHAR 048
ENCODING 48
SWIDTH 523 0
DWIDTH 6 0
BBX 4 8 1 0
BITMAP
60
90
90
B0
D0
90
90
60
ENDCHAR
STARTCHAR 049
ENCODING 49
SWIDTH 523 0
DWIDTH 6 0
BBX 5 8 1 0
BITMAP
20
60
A0
20
20
20
20
F8
ENDCHAR
STARTCHAR 050
ENCODING 50
SWIDTH 523 0
DWIDTH 6 0
BBX 4 8 1 0
BITMAP
60
90
90
10
20
40
80
F0
ENDCHAR
STARTCHAR 051
ENCODING 51
SWIDTH 523 0
DWIDTH 6 0
BBX 4 8 1 0
BITMAP
F0
10
20
60
10
10
90
60
ENDCHAR
STARTCHAR 052
ENCODING 52
SWIDTH 523 0
DWIDTH 6 0
BBX 5 8 1 0
BITMAP
10
30
50
90
90
F8
10
10
ENDCHAR
STARTCHAR 053
ENCODING 53
SWIDTH 523 0
DWIDTH 6 0
BBX 4 8 1 0
BITMAP
F0
80
80
E0
10
10
90
60
ENDCHAR
STARTCHAR 054
ENCODING 54
SWIDTH 523 0
DWIDTH 6 0
BBX 4 8 1 0
BITMAP
20
40
80
E0
90
90
90
60
ENDCHAR
STARTCHAR 055
ENCODING 55
SWIDTH 523 0
DWIDTH 6 0
BBX 4 8 1 0
BITMAP
F0
10
10
20
20
40
40
40
ENDCHAR
STARTCHAR 056
ENCODING 56
SWIDTH 523 0
DWIDTH 6 0
BBX 4 8 1 0
BITMAP
60
90
90
60
60
90
90
60
ENDCHAR
STARTCHAR 057
ENCODING 57
SWIDTH 523 0
DWIDTH 6 0
BBX 4 8 1 0
BITMAP
60
90
90
90
70
10
20
40
ENDCHAR
STARTCHAR 058
ENCODING 58
SWIDTH 523 0
DWIDTH 6 0
BBX 2 6 2 0
BITMAP
C0
C0
00
00
C0
C0
ENDCHAR
STARTCHAR 059
ENCODING 59
SWIDTH 523 0
DWIDTH 6 0
BBX 3 8 1 -2
BITMAP
60
60
00
00
00
60
40
80
ENDCHAR
STARTCHAR 060
ENCODING 60
SWIDTH 523 0
DWIDTH 6 0
BBX 4 7 1 0
BITMAP
10
20
40
80
40
20
10
ENDCHAR
STARTCHAR 061
ENCODING 61
SWIDTH 523 0
DWIDTH 6 0
BBX 4 4 1 1
BITMAP
F0
00
00
F0
ENDCHAR
STARTCHAR 062
ENCODING 62
SWIDTH 523 0
DWIDTH 6 0
BBX 4 7 1 0
BITMAP
80
40
20
10
20
40
80
ENDCHAR
STARTCHAR 063
ENCODING 63
SWIDTH 523 0
DWIDTH 6 0
BBX 3 8 2 0
BITMAP
C0
20
20
20
C0
80
00
80
ENDCHAR
STARTCHAR 064
ENCODING 64
SWIDTH 523 0
DWIDTH 6 0
BBX 4 7 1 0
BITMAP
60
90
90
B0
B0
80
60
ENDCHAR
STARTCHAR 065
ENCODING 65
SWIDTH 523 0
DWIDTH 6 0
BBX 4 8 1 0
BITMAP
60
90
90
90
F0
90
90
90
ENDCHAR
STARTCHAR 066
ENCODING 66
SWIDTH 523 0
DWIDTH 6 0
BBX 4 8 1 0
BITMAP
E0
90
90
E0
90
90
90
E0
ENDCHAR
STARTCHAR 067
ENCODING 67
SWIDTH 523 0
DWIDTH 6 0
BBX 4 8 1 0
BITMAP
60
90
80
80
80
80
90
60
ENDCHAR
STARTCHAR 068
ENCODING 68
SWIDTH 523 0
DWIDTH 6 0
BBX 4 8 1 0
BITMAP
E0
90
90
90
90
90
90
E0
ENDCHAR
STARTCHAR 069
ENCODING 69
SWIDTH 523 0
DWIDTH 6 0
BBX 4 8 1 0
BITMAP
F0
80
80
F0
80
80
80
F0
ENDCHAR
STARTCHAR 070
ENCODING 70
SWIDTH 523 0
DWIDTH 6 0
BBX 4 8 1 0
BITMAP
F0
80
80
F0
80
80
80
80
ENDCHAR
STARTCHAR 071
ENCODING 71
SWIDTH 523 0
DWIDTH 6 0
BBX 4 8 1 0
BITMAP
60
90
80
80
B0
90
90
70
ENDCHAR
STARTCHAR 072
ENCODING 72
SWIDTH 523 0
DWIDTH 6 0
BBX 4 8 1 0
BITMAP
90
90
90
F0
90
90
90
90
ENDCHAR
STARTCHAR 073
ENCODING 73
SWIDTH 523 0
DWIDTH 6 0
BBX 3 8 2 0
BITMAP
E0
40
40
40
40
40
40
E0
ENDCHAR
STARTCHAR 074
ENCODING 74
SWIDTH 523 0
DWIDTH 6 0
BBX 4 8 1 0
BITMAP
70
10
10
10
10
10
90
60
ENDCHAR
STARTCHAR 075
ENCODING 75
SWIDTH 523 0
DWIDTH 6 0
BBX 4 8 1 0
BITMAP
90
90
A0
C0
C0
A0
90
90
ENDCHAR
STARTCHAR 076
ENCODING 76
SWIDTH 523 0
DWIDTH 6 0
BBX 3 8 2 0
BITMAP
80
80
80
80
80
80
80
E0
ENDCHAR
STARTCHAR 077
ENCODING 77
SWIDTH 523 0
DWIDTH 6 0
BBX 4 8 1 0
BITMAP
90
F0
90
90
90
90
90
90
ENDCHAR
STARTCHAR 078
ENCODING 78
SWIDTH 523 0
DWIDTH 6 0
BBX 4 8 1 0
BITMAP
90
D0
D0
B0
B0
90
90
90
ENDCHAR
STARTCHAR 079
ENCODING 79
SWIDTH 523 0
DWIDTH 6 0
BBX 4 8 1 0
BITMAP
60
90
90
90
90
90
90
60
ENDCHAR
STARTCHAR 080
ENCODING 80
SWIDTH 523 0
DWIDTH 6 0
BBX 4 8 1 0
BITMAP
E0
90
90
90
E0
80
80
80
ENDCHAR
STARTCHAR 081
ENCODING 81
SWIDTH 523 0
DWIDTH 6 0
BBX 4 10 1 -2
BITMAP
60
90
90
90
90
90
90
60
20
10
ENDCHAR
STARTCHAR 082
ENCODING 82
SWIDTH 523 0
DWIDTH 6 0
BBX 4 8 1 0
BITMAP
E0
90
90
90
E0
A0
90
90
ENDCHAR
STARTCHAR 083
ENCODING 83
SWIDTH 523 0
DWIDTH 6 0
BBX 4 8 1 0
BITMAP
60
90
80
40
20
10
90
60
ENDCHAR
STARTCHAR 084
ENCODING 84
SWIDTH 523 0
DWIDTH 6 0
BBX 5 8 1 0
BITMAP
F8
20
20
20
20
20
20
20
ENDCHAR
STARTCHAR 085
ENCODING 85
SWIDTH 523 0
DWIDTH 6 0
BBX 4 8 1 0
BITMAP
90
90
90
90
90
90
90
60
ENDCHAR
STARTCHAR 086
ENCODING 86
SWIDTH 523 0
DWIDTH 6 0
BBX 4 8 1 0
BITMAP
90
90
90
90
90
90
60
60
ENDCHAR
STARTCHAR 087
ENCODING 87
SWIDTH 523 0
DWIDTH 6 0
BBX 4 8 1 0
BITMAP
90
90
90
90
90
90
F0
90
ENDCHAR
STARTCHAR 088
ENCODING 88
SWIDTH 523 0
DWIDTH 6 0
BBX 4 8 1 0
BITMAP
90
90
90
60
60
90
90
90
ENDCHAR
STARTCHAR 089
ENCODING 89
SWIDTH 523 0
DWIDTH 6 0
BBX 5 8 1 0
BITMAP
88
88
50
50
20
20
20
20
ENDCHAR
STARTCHAR 090
ENCODING 90
SWIDTH 523 0
DWIDTH 6 0
BBX 4 8 1 0
BITMAP
F0
10
20
20
40
40
80
F0
ENDCHAR
STARTCHAR 091
ENCODING 91
SWIDTH 523 0
DWIDTH 6 0
BBX 3 10 2 -1
BITMAP
E0
80
80
80
80
80
80
80
80
E0
ENDCHAR
STARTCHAR 092
ENCODING 92
SWIDTH 523 0
DWIDTH 6 0
BBX 3 9 1 -1
BITMAP
80
80
80
40
40
40
20
20
20
ENDCHAR
STARTCHAR 093
ENCODING 93
SWIDTH 523 0
DWIDTH 6 0
BBX 3 10 1 -1
BITMAP
E0
20
20
20
20
20
20
20
20
E0
ENDCHAR
STARTCHAR 094
ENCODING 94
SWIDTH 523 0
DWIDTH 6 0
BBX 5 3 1 5
BITMAP
20
50
88
ENDCHAR
STARTCHAR 095
ENCODING 95
SWIDTH 523 0
DWIDTH 6 0
BBX 4 1 1 0
BITMAP
F0
ENDCHAR
STARTCHAR 096
ENCODING 96
SWIDTH 523 0
DWIDTH 6 0
BBX 2 3 2 5
BITMAP
80
80
40
ENDCHAR
STARTCHAR 097
ENCODING 97
SWIDTH 523 0
DWIDTH 6 0
BBX 4 6 1 0
BITMAP
60
10
70
90
90
70
ENDCHAR
STARTCHAR 098
ENCODING 98
SWIDTH 523 0
DWIDTH 6 0
BBX 4 8 1 0
BITMAP
80
80
A0
D0
90
90
90
60
ENDCHAR
STARTCHAR 099
ENCODING 99
SWIDTH 523 0
DWIDTH 6 0
BBX 4 6 1 0
BITMAP
60
90
80
80
90
60
ENDCHAR
STARTCHAR 100
ENCODING 100
SWIDTH 523 0
DWIDTH 6 0
BBX 4 8 1 0
BITMAP
10
10
50
B0
90
90
90
60
ENDCHAR
STARTCHAR 101
ENCODING 101
SWIDTH 523 0
DWIDTH 6 0
BBX 4 6 1 0
BITMAP
60
90
F0
80
80
70
ENDCHAR
STARTCHAR 102
ENCODING 102
SWIDTH 523 0
DWIDTH 6 0
BBX 4 8 1 0
BITMAP
60
90
80
E0
80
80
80
80
ENDCHAR
STARTCHAR 103
ENCODING 103
SWIDTH 523 0
DWIDTH 6 0
BBX 4 8 1 -2
BITMAP
60
90
90
90
70
10
90
60
ENDCHAR
STARTCHAR 104
ENCODING 104
SWIDTH 523 0
DWIDTH 6 0
BBX 4 8 1 0
BITMAP
80
80
A0
D0
90
90
90
90
ENDCHAR
STARTCHAR 105
ENCODING 105
SWIDTH 523 0
DWIDTH 6 0
BBX 3 8 2 0
BITMAP
40
00
C0
40
40
40
40
E0
ENDCHAR
STARTCHAR 106
ENCODING 106
SWIDTH 523 0
DWIDTH 6 0
BBX 4 10 1 -2
BITMAP
10
00
70
10
10
10
10
10
90
60
ENDCHAR
STARTCHAR 107
ENCODING 107
SWIDTH 523 0
DWIDTH 6 0
BBX 4 8 1 0
BITMAP
80
80
90
A0
C0
C0
A0
90
ENDCHAR
STARTCHAR 108
ENCODING 108
SWIDTH 523 0
DWIDTH 6 0
BBX 3 8 2 0
BITMAP
C0
40
40
40
40
40
40
E0
ENDCHAR
STARTCHAR 109
ENCODING 109
SWIDTH 523 0
DWIDTH 6 0
BBX 4 6 1 0
BITMAP
90
F0
90
90
90
90
ENDCHAR
STARTCHAR 110
ENCODING 110
SWIDTH 523 0
DWIDTH 6 0
BBX 4 6 1 0
BITMAP
60
90
90
90
90
90
ENDCHAR
STARTCHAR 111
ENCODING 111
SWIDTH 523 0
DWIDTH 6 0
BBX 4 6 1 0
BITMAP
60
90
90
90
90
60
ENDCHAR
STARTCHAR 112
ENCODING 112
SWIDTH 523 0
DWIDTH 6 0
BBX 4 8 1 -2
BITMAP
E0
90
90
90
E0
80
80
80
ENDCHAR
STARTCHAR 113
ENCODING 113
SWIDTH 523 0
DWIDTH 6 0
BBX 4 8 1 -2
BITMAP
70
90
90
90
70
10
10
10
ENDCHAR
STARTCHAR 114
ENCODING 114
SWIDTH 523 0
DWIDTH 6 0
BBX 4 6 1 0
BITMAP
A0
D0
80
80
80
80
ENDCHAR
STARTCHAR 115
ENCODING 115
SWIDTH 523 0
DWIDTH 6 0
BBX 4 6 1 0
BITMAP
70
80
C0
30
10
E0
ENDCHAR
STARTCHAR 116
ENCODING 116
SWIDTH 523 0
DWIDTH 6 0
BBX 5 7 1 0
BITMAP
40
F0
40
40
40
48
30
ENDCHAR
STARTCHAR 117
ENCODING 117
SWIDTH 523 0
DWIDTH 6 0
BBX 4 6 1 0
BITMAP
90
90
90
90
90
60
ENDCHAR
STARTCHAR 118
ENCODING 118
SWIDTH 523 0
DWIDTH 6 0
BBX 4 6 1 0
BITMAP
90
90
90
90
60
60
ENDCHAR
STARTCHAR 119
ENCODING 119
SWIDTH 523 0
DWIDTH 6 0
BBX 4 6 1 0
BITMAP
90
90
90
90
F0
90
ENDCHAR
STARTCHAR 120
ENCODING 120
SWIDTH 523 0
DWIDTH 6 0
BBX 4 6 1 0
BITMAP
90
90
60
60
90
90
ENDCHAR
STARTCHAR 121
ENCODING 121
SWIDTH 523 0
DWIDTH 6 0
BBX 5 8 1 -2
BITMAP
88
88
50
50
20
20
20
C0
ENDCHAR
STARTCHAR 122
ENCODING 122
SWIDTH 523 0
DWIDTH 6 0
BBX 4 6 1 0
BITMAP
F0
10
20
40
80
F0
ENDCHAR
STARTCHAR 123
ENCODING 123
SWIDTH 523 0
DWIDTH 6 0
BBX 4 10 1 -1
BITMAP
30
40
40
40
40
80
40
40
40
30
ENDCHAR
STARTCHAR 124
ENCODING 124
SWIDTH 523 0
DWIDTH 6 0
BBX 1 9 2 -1
BITMAP
80
00
80
00
80
00
80
00
80
ENDCHAR
STARTCHAR 125
ENCODING 125
SWIDTH 523 0
DWIDTH 6 0
BBX 4 10 1 -1
BITMAP
C0
20
20
20
20
10
20
20
20
C0
ENDCHAR
STARTCHAR 126
ENCODING 126
SWIDTH 523 0
DWIDTH 6 0
BBX 5 4 1 3
BITMAP
40
A8
A8
10
ENDCHAR
STARTCHAR 127
ENCODING 127
SWIDTH 523 0
DWIDTH 6 0
BBX 0 0 0 0
BITMAP
ENDCHAR
STARTCHAR 128
ENCODING 128
SWIDTH 523 0
DWIDTH 6 0
BBX 5 7 1 0
BITMAP
30
48
C0
70
C0
48
30
ENDCHAR
STARTCHAR 129
ENCODING 129
SWIDTH 523 0
DWIDTH 6 0
BBX 0 0 0 0
BITMAP
ENDCHAR
STARTCHAR 130
ENCODING 130
SWIDTH 523 0
DWIDTH 6 0
BBX 2 3 1 -2
BITMAP
40
40
80
ENDCHAR
STARTCHAR 131
ENCODING 131
SWIDTH 523 0
DWIDTH 6 0
BBX 5 10 0 -2
BITMAP
18
20
20
20
70
20
20
20
20
C0
ENDCHAR
STARTCHAR 132
ENCODING 132
SWIDTH 523 0
DWIDTH 6 0
BBX 4 3 0 -2
BITMAP
50
50
A0
ENDCHAR
STARTCHAR 133
ENCODING 133
SWIDTH 523 0
DWIDTH 6 0
BBX 3 1 2 0
BITMAP
A0
ENDCHAR
STARTCHAR 134
ENCODING 134
SWIDTH 523 0
DWIDTH 6 0
BBX 3 7 1 0
BITMAP
40
40
E0
40
40
40
40
ENDCHAR
STARTCHAR 135
ENCODING 135
SWIDTH 523 0
DWIDTH 6 0
BBX 3 7 1 0
BITMAP
40
E0
40
E0
40
40
40
ENDCHAR
STARTCHAR 136
ENCODING 136
SWIDTH 523 0
DWIDTH 6 0
BBX 3 2 1 7
BITMAP
40
A0
ENDCHAR
STARTCHAR 137
ENCODING 137
SWIDTH 523 0
DWIDTH 6 0
BBX 5 9 1 -1
BITMAP
40
A0
40
18
E0
00
50
A8
50
ENDCHAR
STARTCHAR 138
ENCODING 138
SWIDTH 523 0
DWIDTH 6 0
BBX 4 9 1 0
BITMAP
90
60
90
80
40
20
10
90
60
ENDCHAR
STARTCHAR 139
ENCODING 139
SWIDTH 523 0
DWIDTH 6 0
BBX 2 3 1 1
BITMAP
40
80
40
ENDCHAR
STARTCHAR 140
ENCODING 140
SWIDTH 523 0
DWIDTH 6 0
BBX 5 8 0 0
BITMAP
78
A0
A0
90
A0
A0
A0
78
ENDCHAR
STARTCHAR 141
ENCODING 141
SWIDTH 523 0
DWIDTH 6 0
BBX 0 0 0 0
BITMAP
ENDCHAR
STARTCHAR 142
ENCODING 142
SWIDTH 523 0
DWIDTH 6 0
BBX 4 9 1 0
BITMAP
90
F0
10
20
20
40
40
80
F0
ENDCHAR
STARTCHAR 143
ENCODING 143
SWIDTH 523 0
DWIDTH 6 0
BBX 0 0 0 0
BITMAP
ENDCHAR
STARTCHAR 144
ENCODING 144
SWIDTH 523 0
DWIDTH 6 0
BBX 0 0 0 0
BITMAP
ENDCHAR
STARTCHAR 145
ENCODING 145
SWIDTH 523 0
DWIDTH 6 0
BBX 2 3 2 6
BITMAP
80
80
40
ENDCHAR
STARTCHAR 146
ENCODING 146
SWIDTH 523 0
DWIDTH 6 0
BBX 2 3 2 6
BITMAP
40
40
80
ENDCHAR
STARTCHAR 147
ENCODING 147
SWIDTH 523 0
DWIDTH 6 0
BBX 4 3 1 6
BITMAP
A0
A0
50
ENDCHAR
STARTCHAR 148
ENCODING 148
SWIDTH 523 0
DWIDTH 6 0
BBX 4 3 1 6
BITMAP
50
50
A0
ENDCHAR
STARTCHAR 149
ENCODING 149
SWIDTH 523 0
DWIDTH 6 0
BBX 4 3 1 2
BITMAP
60
F0
60
ENDCHAR
STARTCHAR 150
ENCODING 150
SWIDTH 523 0
DWIDTH 6 0
BBX 2 1 2 3
BITMAP
C0
ENDCHAR
STARTCHAR 151
ENCODING 151
SWIDTH 523 0
DWIDTH 6 0
BBX 5 1 0 3
BITMAP
F8
ENDCHAR
STARTCHAR 152
ENCODING 152
SWIDTH 523 0
DWIDTH 6 0
BBX 4 2 1 6
BITMAP
50
A0
ENDCHAR
STARTCHAR 153
ENCODING 153
SWIDTH 523 0
DWIDTH 6 0
BBX 6 3 0 5
BITMAP
FC
5C
54
ENDCHAR
STARTCHAR 154
ENCODING 154
SWIDTH 523 0
DWIDTH 6 0
BBX 4 9 1 0
BITMAP
90
60
00
60
90
40
20
90
60
ENDCHAR
STARTCHAR 155
ENCODING 155
SWIDTH 523 0
DWIDTH 6 0
BBX 2 3 2 1
BITMAP
80
40
80
ENDCHAR
STARTCHAR 156
ENCODING 156
SWIDTH 523 0
DWIDTH 6 0
BBX 5 6 0 0
BITMAP
70
A8
A8
B8
A0
78
ENDCHAR
STARTCHAR 157
ENCODING 157
SWIDTH 523 0
DWIDTH 6 0
BBX 0 0 0 0
BITMAP
ENDCHAR
STARTCHAR 158
ENCODING 158
SWIDTH 523 0
DWIDTH 6 0
BBX 4 9 1 0
BITMAP
90
60
00
F0
10
20
40
80
F0
ENDCHAR
STARTCHAR 159
ENCODING 159
SWIDTH 523 0
DWIDTH 6 0
BBX 4 10 1 -2
BITMAP
50
00
90
90
90
90
50
30
10
60
ENDCHAR
STARTCHAR 160
ENCODING 160
SWIDTH 523 0
DWIDTH 6 0
BBX 4 2 1 0
BITMAP
90
F0
ENDCHAR
STARTCHAR 161
ENCODING 161
SWIDTH 523 0
DWIDTH 6 0
BBX 1 8 2 0
BITMAP
80
80
00
80
80
80
80
80
ENDCHAR
STARTCHAR 162
ENCODING 162
SWIDTH 523 0
DWIDTH 6 0
BBX 4 7 1 0
BITMAP
10
70
A0
A0
A0
70
40
ENDCHAR
STARTCHAR 163
ENCODING 163
SWIDTH 523 0
DWIDTH 6 0
BBX 4 8 1 0
BITMAP
30
40
40
E0
40
40
40
F0
ENDCHAR
STARTCHAR 164
ENCODING 164
SWIDTH 523 0
DWIDTH 6 0
BBX 5 6 0 1
BITMAP
88
70
50
50
70
88
ENDCHAR
STARTCHAR 165
ENCODING 165
SWIDTH 523 0
DWIDTH 6 0
BBX 5 8 0 0
BITMAP
88
50
20
F8
20
F8
20
20
ENDCHAR
STARTCHAR 166
ENCODING 166
SWIDTH 523 0
DWIDTH 6 0
BBX 1 9 2 -1
BITMAP
80
80
80
80
00
80
80
80
80
ENDCHAR
STARTCHAR 167
ENCODING 167
SWIDTH 523 0
DWIDTH 6 0
BBX 4 8 1 0
BITMAP
60
90
C0
A0
50
30
90
60
ENDCHAR
STARTCHAR 168
ENCODING 168
SWIDTH 523 0
DWIDTH 6 0
BBX 3 1 1 7
BITMAP
A0
ENDCHAR
STARTCHAR 169
ENCODING 169
SWIDTH 523 0
DWIDTH 6 0
BBX 5 8 0 0
BITMAP
70
88
20
40
40
20
88
70
ENDCHAR
STARTCHAR 170
ENCODING 170
SWIDTH 523 0
DWIDTH 6 0
BBX 4 6 1 2
BITMAP
70
90
B0
50
00
F0
ENDCHAR
STARTCHAR 171
ENCODING 171
SWIDTH 523 0
DWIDTH 6 0
BBX 4 3 1 1
BITMAP
50
A0
50
ENDCHAR
STARTCHAR 172
ENCODING 172
SWIDTH 523 0
DWIDTH 6 0
BBX 4 3 1 1
BITMAP
F0
10
10
ENDCHAR
STARTCHAR 173
ENCODING 173
SWIDTH 523 0
DWIDTH 6 0
BBX 3 1 1 3
BITMAP
E0
ENDCHAR
STARTCHAR 174
ENCODING 174
SWIDTH 523 0
DWIDTH 6 0
BBX 5 8 0 0
BITMAP
70
88
20
50
60
50
88
70
ENDCHAR
STARTCHAR 175
ENCODING 175
SWIDTH 523 0
DWIDTH 6 0
BBX 4 1 1 8
BITMAP
F0
ENDCHAR
STARTCHAR 176
ENCODING 176
SWIDTH 523 0
DWIDTH 6 0
BBX 3 4 1 4
BITMAP
40
A0
A0
40
ENDCHAR
STARTCHAR 177
ENCODING 177
SWIDTH 523 0
DWIDTH 6 0
BBX 3 5 2 1
BITMAP
40
E0
40
00
E0
ENDCHAR
STARTCHAR 178
ENCODING 178
SWIDTH 523 0
DWIDTH 6 0
BBX 3 5 2 4
BITMAP
C0
20
40
80
E0
ENDCHAR
STARTCHAR 179
ENCODING 179
SWIDTH 523 0
DWIDTH 6 0
BBX 3 5 2 4
BITMAP
C0
20
40
20
C0
ENDCHAR
STARTCHAR 180
ENCODING 180
SWIDTH 523 0
DWIDTH 6 0
BBX 2 3 2 6
BITMAP
40
40
80
ENDCHAR
STARTCHAR 181
ENCODING 181
SWIDTH 523 0
DWIDTH 6 0
BBX 4 8 1 -2
BITMAP
90
90
90
90
90
E0
80
80
ENDCHAR
STARTCHAR 182
ENCODING 182
SWIDTH 523 0
DWIDTH 6 0
BBX 4 8 1 0
BITMAP
F0
D0
D0
D0
50
50
50
50
ENDCHAR
STARTCHAR 183
ENCODING 183
SWIDTH 523 0
DWIDTH 6 0
BBX 1 1 2 3
BITMAP
80
ENDCHAR
STARTCHAR 184
ENCODING 184
SWIDTH 523 0
DWIDTH 6 0
BBX 3 2 1 0
BITMAP
20
C0
ENDCHAR
STARTCHAR 185
ENCODING 185
SWIDTH 523 0
DWIDTH 6 0
BBX 2 5 3 4
BITMAP
40
C0
40
40
40
ENDCHAR
STARTCHAR 186
ENCODING 186
SWIDTH 523 0
DWIDTH 6 0
BBX 4 6 1 2
BITMAP
60
90
90
60
00
F0
ENDCHAR
STARTCHAR 187
ENCODING 187
SWIDTH 523 0
DWIDTH 6 0
BBX 4 3 1 1
BITMAP
A0
50
A0
ENDCHAR
STARTCHAR 188
ENCODING 188
SWIDTH 523 0
DWIDTH 6 0
BBX 4 10 1 -1
BITMAP
40
C0
40
50
20
50
B0
50
70
10
ENDCHAR
STARTCHAR 189
ENCODING 189
SWIDTH 523 0
DWIDTH 6 0
BBX 4 10 1 -1
BITMAP
40
C0
50
60
40
A0
50
10
20
70
ENDCHAR
STARTCHAR 190
ENCODING 190
SWIDTH 523 0
DWIDTH 6 0
BBX 5 10 0 -1
BITMAP
C0
20
60
28
D0
28
58
28
38
08
ENDCHAR
STARTCHAR 191
ENCODING 191
SWIDTH 523 0
DWIDTH 6 0
BBX 4 8 1 0
BITMAP
20
20
00
20
40
80
90
60
ENDCHAR
STARTCHAR 192
ENCODING 192
SWIDTH 523 0
DWIDTH 6 0
BBX 4 9 1 0
BITMAP
40
20
60
90
90
F0
90
90
90
ENDCHAR
STARTCHAR 193
ENCODING 193
SWIDTH 523 0
DWIDTH 6 0
BBX 4 9 1 0
BITMAP
20
40
60
90
90
F0
90
90
90
ENDCHAR
STARTCHAR 194
ENCODING 194
SWIDTH 523 0
DWIDTH 6 0
BBX 4 9 1 0
BITMAP
50
00
60
90
90
F0
90
90
90
ENDCHAR
STARTCHAR 195
ENCODING 195
SWIDTH 523 0
DWIDTH 6 0
BBX 4 9 1 0
BITMAP
50
A0
60
90
90
F0
90
90
90
ENDCHAR
STARTCHAR 196
ENCODING 196
SWIDTH 523 0
DWIDTH 6 0
BBX 4 9 1 0
BITMAP
90
00
60
90
90
F0
90
90
90
ENDCHAR
STARTCHAR 197
ENCODING 197
SWIDTH 523 0
DWIDTH 6 0
BBX 4 9 1 0
BITMAP
60
90
60
90
90
F0
90
90
90
ENDCHAR
STARTCHAR 198
ENCODING 198
SWIDTH 523 0
DWIDTH 6 0
BBX 5 7 0 0
BITMAP
78
90
90
F8
90
90
98
ENDCHAR
STARTCHAR 199
ENCODING 199
SWIDTH 523 0
DWIDTH 6 0
BBX 4 9 1 -2
BITMAP
60
90
80
80
80
90
60
20
40
ENDCHAR
STARTCHAR 200
ENCODING 200
SWIDTH 523 0
DWIDTH 6 0
BBX 4 9 1 0
BITMAP
40
20
F0
80
80
E0
80
80
F0
ENDCHAR
STARTCHAR 201
ENCODING 201
SWIDTH 523 0
DWIDTH 6 0
BBX 4 9 1 0
BITMAP
20
40
F0
80
80
E0
80
80
F0
ENDCHAR
STARTCHAR 202
ENCODING 202
SWIDTH 523 0
DWIDTH 6 0
BBX 4 9 1 0
BITMAP
40
A0
F0
80
80
E0
80
80
F0
ENDCHAR
STARTCHAR 203
ENCODING 203
SWIDTH 523 0
DWIDTH 6 0
BBX 4 9 1 0
BITMAP
A0
00
F0
80
80
E0
80
80
F0
ENDCHAR
STARTCHAR 204
ENCODING 204
SWIDTH 523 0
DWIDTH 6 0
BBX 3 9 2 0
BITMAP
40
00
E0
40
40
40
40
40
E0
ENDCHAR
STARTCHAR 205
ENCODING 205
SWIDTH 523 0
DWIDTH 6 0
BBX 3 9 2 0
BITMAP
40
00
E0
40
40
40
40
40
E0
ENDCHAR
STARTCHAR 206
ENCODING 206
SWIDTH 523 0
DWIDTH 6 0
BBX 3 9 2 0
BITMAP
A0
00
E0
40
40
40
40
40
E0
ENDCHAR
STARTCHAR 207
ENCODING 207
SWIDTH 523 0
DWIDTH 6 0
BBX 3 9 2 0
BITMAP
A0
00
E0
40
40
40
40
40
E0
ENDCHAR
STARTCHAR 208
ENCODING 208
SWIDTH 523 0
DWIDTH 6 0
BBX 5 8 0 0
BITMAP
70
48
48
E8
48
48
48
70
ENDCHAR
STARTCHAR 209
ENCODING 209
SWIDTH 523 0
DWIDTH 6 0
BBX 4 9 1 0
BITMAP
50
A0
00
60
90
90
90
90
90
ENDCHAR
STARTCHAR 210
ENCODING 210
SWIDTH 523 0
DWIDTH 6 0
BBX 4 9 1 0
BITMAP
80
40
00
60
90
90
90
90
60
ENDCHAR
STARTCHAR 211
ENCODING 211
SWIDTH 523 0
DWIDTH 6 0
BBX 4 9 1 0
BITMAP
20
40
00
60
90
90
90
90
60
ENDCHAR
STARTCHAR 212
ENCODING 212
SWIDTH 523 0
DWIDTH 6 0
BBX 4 9 1 0
BITMAP
40
A0
00
60
90
90
90
90
60
ENDCHAR
STARTCHAR 213
ENCODING 213
SWIDTH 523 0
DWIDTH 6 0
BBX 4 9 1 0
BITMAP
50
A0
00
60
90
90
90
90
60
ENDCHAR
STARTCHAR 214
ENCODING 214
SWIDTH 523 0
DWIDTH 6 0
BBX 4 9 1 0
BITMAP
90
00
60
90
90
90
90
90
60
ENDCHAR
STARTCHAR 215
ENCODING 215
SWIDTH 523 0
DWIDTH 6 0
BBX 4 4 1 1
BITMAP
90
60
60
90
ENDCHAR
STARTCHAR 216
ENCODING 216
SWIDTH 523 0
DWIDTH 6 0
BBX 4 10 1 -1
BITMAP
10
60
B0
B0
B0
D0
D0
D0
60
80
ENDCHAR
STARTCHAR 217
ENCODING 217
SWIDTH 523 0
DWIDTH 6 0
BBX 4 9 1 0
BITMAP
80
40
90
90
90
90
90
90
60
ENDCHAR
STARTCHAR 218
ENCODING 218
SWIDTH 523 0
DWIDTH 6 0
BBX 4 9 1 0
BITMAP
10
20
90
90
90
90
90
90
60
ENDCHAR
STARTCHAR 219
ENCODING 219
SWIDTH 523 0
DWIDTH 6 0
BBX 4 9 1 0
BITMAP
20
50
00
90
90
90
90
90
60
ENDCHAR
STARTCHAR 220
ENCODING 220
SWIDTH 523 0
DWIDTH 6 0
BBX 4 9 1 0
BITMAP
90
00
90
90
90
90
90
90
60
ENDCHAR
STARTCHAR 221
ENCODING 221
SWIDTH 523 0
DWIDTH 6 0
BBX 5 9 0 0
BITMAP
10
20
88
50
50
20
20
20
20
ENDCHAR
STARTCHAR 222
ENCODING 222
SWIDTH 523 0
DWIDTH 6 0
BBX 4 8 1 0
BITMAP
80
80
E0
90
90
E0
80
80
ENDCHAR
STARTCHAR 223
ENCODING 223
SWIDTH 523 0
DWIDTH 6 0
BBX 4 10 1 -2
BITMAP
60
90
90
A0
90
90
90
A0
80
80
ENDCHAR
STARTCHAR 224
ENCODING 224
SWIDTH 523 0
DWIDTH 6 0
BBX 4 9 1 0
BITMAP
40
20
00
60
10
70
90
90
70
ENDCHAR
STARTCHAR 225
ENCODING 225
SWIDTH 523 0
DWIDTH 6 0
BBX 4 9 1 0
BITMAP
20
40
00
60
10
70
90
90
70
ENDCHAR
STARTCHAR 226
ENCODING 226
SWIDTH 523 0
DWIDTH 6 0
BBX 4 9 1 0
BITMAP
40
A0
00
60
10
70
90
90
70
ENDCHAR
STARTCHAR 227
ENCODING 227
SWIDTH 523 0
DWIDTH 6 0
BBX 4 9 1 0
BITMAP
50
A0
00
60
10
70
90
90
70
ENDCHAR
STARTCHAR 228
ENCODING 228
SWIDTH 523 0
DWIDTH 6 0
BBX 4 8 1 0
BITMAP
90
00
60
10
70
90
90
70
ENDCHAR
STARTCHAR 229
ENCODING 229
SWIDTH 523 0
DWIDTH 6 0
BBX 4 9 1 0
BITMAP
60
90
60
60
10
70
90
90
70
ENDCHAR
STARTCHAR 230
ENCODING 230
SWIDTH 523 0
DWIDTH 6 0
BBX 5 6 0 0
BITMAP
70
A8
A8
B0
E0
B8
ENDCHAR
STARTCHAR 231
ENCODING 231
SWIDTH 523 0
DWIDTH 6 0
BBX 4 8 1 -2
BITMAP
60
90
80
80
90
60
20
40
ENDCHAR
STARTCHAR 232
ENCODING 232
SWIDTH 523 0
DWIDTH 6 0
BBX 4 9 1 0
BITMAP
40
20
00
60
90
F0
80
80
70
ENDCHAR
STARTCHAR 233
ENCODING 233
SWIDTH 523 0
DWIDTH 6 0
BBX 4 9 1 0
BITMAP
20
40
00
60
90
F0
80
80
70
ENDCHAR
STARTCHAR 234
ENCODING 234
SWIDTH 523 0
DWIDTH 6 0
BBX 4 9 1 0
BITMAP
40
A0
00
60
90
F0
80
80
70
ENDCHAR
STARTCHAR 235
ENCODING 235
SWIDTH 523 0
DWIDTH 6 0
BBX 4 8 1 0
BITMAP
A0
00
60
90
F0
80
80
70
ENDCHAR
STARTCHAR 236
ENCODING 236
SWIDTH 523 0
DWIDTH 6 0
BBX 2 9 2 0
BITMAP
80
40
00
C0
40
40
40
40
40
ENDCHAR
STARTCHAR 237
ENCODING 237
SWIDTH 523 0
DWIDTH 6 0
BBX 3 9 2 0
BITMAP
20
40
00
C0
40
40
40
40
40
ENDCHAR
STARTCHAR 238
ENCODING 238
SWIDTH 523 0
DWIDTH 6 0
BBX 3 9 2 0
BITMAP
40
A0
00
C0
40
40
40
40
40
ENDCHAR
STARTCHAR 239
ENCODING 239
SWIDTH 523 0
DWIDTH 6 0
BBX 3 8 2 0
BITMAP
A0
00
C0
40
40
40
40
40
ENDCHAR
STARTCHAR 240
ENCODING 240
SWIDTH 523 0
DWIDTH 6 0
BBX 4 8 1 0
BITMAP
A0
60
90
70
90
90
90
60
ENDCHAR
STARTCHAR 241
ENCODING 241
SWIDTH 523 0
DWIDTH 6 0
BBX 4 9 1 0
BITMAP
50
A0
00
A0
D0
90
90
90
90
ENDCHAR
STARTCHAR 242
ENCODING 242
SWIDTH 523 0
DWIDTH 6 0
BBX 4 9 1 0
BITMAP
40
20
00
60
90
90
90
90
60
ENDCHAR
STARTCHAR 243
ENCODING 243
SWIDTH 523 0
DWIDTH 6 0
BBX 4 9 1 0
BITMAP
20
40
00
60
90
90
90
90
60
ENDCHAR
STARTCHAR 244
ENCODING 244
SWIDTH 523 0
DWIDTH 6 0
BBX 4 9 1 0
BITMAP
40
A0
00
60
90
90
90
90
60
ENDCHAR
STARTCHAR 245
ENCODING 245
SWIDTH 523 0
DWIDTH 6 0
BBX 4 9 1 0
BITMAP
50
A0
00
60
90
90
90
90
60
ENDCHAR
STARTCHAR 246
ENCODING 246
SWIDTH 523 0
DWIDTH 6 0
BBX 4 8 1 0
BITMAP
90
00
60
90
90
90
90
60
ENDCHAR
STARTCHAR 247
ENCODING 247
SWIDTH 523 0
DWIDTH 6 0
BBX 4 5 1 1
BITMAP
60
00
F0
00
60
ENDCHAR
STARTCHAR 248
ENCODING 248
SWIDTH 523 0
DWIDTH 6 0
BBX 4 8 1 -1
BITMAP
10
60
B0
B0
D0
D0
60
80
ENDCHAR
STARTCHAR 249
ENCODING 249
SWIDTH 523 0
DWIDTH 6 0
BBX 4 9 1 0
BITMAP
40
20
00
90
90
90
90
90
60
ENDCHAR
STARTCHAR 250
ENCODING 250
SWIDTH 523 0
DWIDTH 6 0
BBX 4 9 1 0
BITMAP
20
40
00
90
90
90
90
90
60
ENDCHAR
STARTCHAR 251
ENCODING 251
SWIDTH 523 0
DWIDTH 6 0
BBX 4 9 1 0
BITMAP
40
A0
00
90
90
90
90
90
60
ENDCHAR
STARTCHAR 252
ENCODING 252
SWIDTH 523 0
DWIDTH 6 0
BBX 4 8 1 0
BITMAP
90
00
90
90
90
90
90
60
ENDCHAR
STARTCHAR 253
ENCODING 253
SWIDTH 523 0
DWIDTH 6 0
BBX 4 11 1 -2
BITMAP
20
40
00
90
90
90
50
60
20
20
C0
ENDCHAR
STARTCHAR 254
ENCODING 254
SWIDTH 523 0
DWIDTH 6 0
BBX 4 7 1 -1
BITMAP
80
E0
90
90
90
E0
80
ENDCHAR
STARTCHAR 255
ENCODING 255
SWIDTH 523 0
DWIDTH 6 0
BBX 4 10 1 -2
BITMAP
90
00
90
90
90
50
60
20
20
C0
ENDCHAR
ENDFONT
